<svg viewBox="0 0 10 10" fill="none" xmlns="http://www.w3.org/2000/svg">
<path d="M9.65525 0.714286C9.65525 0.596429 9.55882 0.5 9.44097 0.5L7.67311 0.508035L5.01061 3.68214L2.35079 0.510714L0.580253 0.502679C0.462395 0.502679 0.365967 0.596429 0.365967 0.716964C0.365967 0.767857 0.384717 0.816071 0.416859 0.85625L3.90168 5.00804L0.416859 9.15714C0.384493 9.1964 0.366534 9.24555 0.365967 9.29643C0.365967 9.41429 0.462395 9.51072 0.580253 9.51072L2.35079 9.50268L5.01061 6.32857L7.67043 9.5L9.43829 9.50804C9.55615 9.50804 9.65257 9.41429 9.65257 9.29375C9.65257 9.24286 9.63382 9.19464 9.60168 9.15446L6.12222 5.00536L9.60704 0.853572C9.63918 0.816072 9.65525 0.765179 9.65525 0.714286Z" fill="black"/>
</svg>
