<svg width="18" height="18" viewBox="0 0 18 18" fill="none" xmlns="http://www.w3.org/2000/svg">
<path d="M9 0C4.02991 0 0 4.02991 0 9C0 13.9701 4.02991 18 9 18C13.9701 18 18 13.9701 18 9C18 4.02991 13.9701 0 9 0ZM9 16.4732C4.87366 16.4732 1.52679 13.1263 1.52679 9C1.52679 4.87366 4.87366 1.52679 9 1.52679C13.1263 1.52679 16.4732 4.87366 16.4732 9C16.4732 13.1263 13.1263 16.4732 9 16.4732Z" fill="#D00443"/>
<path d="M8.03564 12.5357C8.03564 12.7915 8.13724 13.0367 8.31808 13.2176C8.49892 13.3984 8.74419 13.5 8.99993 13.5C9.25567 13.5 9.50094 13.3984 9.68178 13.2176C9.86262 13.0367 9.96422 12.7915 9.96422 12.5357C9.96422 12.28 9.86262 12.0347 9.68178 11.8539C9.50094 11.673 9.25567 11.5714 8.99993 11.5714C8.74419 11.5714 8.49892 11.673 8.31808 11.8539C8.13724 12.0347 8.03564 12.28 8.03564 12.5357V12.5357ZM8.51779 10.2857H9.48207C9.57047 10.2857 9.64279 10.2134 9.64279 10.125V4.66071C9.64279 4.57232 9.57047 4.5 9.48207 4.5H8.51779C8.42939 4.5 8.35707 4.57232 8.35707 4.66071V10.125C8.35707 10.2134 8.42939 10.2857 8.51779 10.2857Z" fill="#D00443"/>
</svg>
