<?xml version="1.0" encoding="iso-8859-1"?>
<!-- Generator: Adobe Illustrator 16.0.0, SVG Export Plug-In . SVG Version: 6.00 Build 0)  -->
<!DOCTYPE svg PUBLIC "-//W3C//DTD SVG 1.1//EN" "http://www.w3.org/Graphics/SVG/1.1/DTD/svg11.dtd">
<svg width="26" height="26" viewBox="0 0 26 26" fill="none" xmlns="http://www.w3.org/2000/svg">
<path d="M19.2808 6.29688L18.7242 6.89812C18.1799 7.48312 17.3024 7.57656 16.632 7.14187C15.5311 6.43094 14.0199 5.87031 12.1633 6.17906C10.1564 6.51625 8.43799 7.74312 7.43455 9.41687L4.17236 6.94688C6.08986 3.98938 9.42518 2.03125 13.2033 2.03125C15.2346 2.03125 17.2414 2.665 19.0005 3.84312C19.8292 4.39969 19.9592 5.56969 19.2808 6.29688Z" fill="#585858"/>
<path d="M6.50417 12.5571C6.46761 13.5605 6.65448 14.5193 7.02011 15.3846L3.6848 17.8424C3.13636 16.8227 2.75042 15.6974 2.56761 14.503C2.13698 11.708 2.78698 9.0674 4.1723 6.94678L7.43448 9.41678C6.87792 10.3471 6.54073 11.4196 6.50417 12.5571Z" fill="#767676"/>
<path d="M20.4952 20.8326C18.6468 22.486 16.1849 23.5016 13.4427 23.5585C9.30707 23.6438 5.54926 21.3404 3.68457 17.8426L7.01988 15.3848C8.03551 17.7979 10.4283 19.5001 13.203 19.5001C14.8036 19.5001 16.258 18.9801 17.3996 18.1026L20.4952 20.8326Z" fill="#919191"/>
<path d="M23.9688 12.9878C23.9728 16.1281 22.6444 18.9109 20.4953 20.8325L17.3997 18.1025C18.2528 17.4484 18.9312 16.5953 19.3659 15.6041C19.4837 15.3359 19.2847 15.0312 18.9922 15.0312H15.0312C14.1334 15.0312 13.4062 14.3041 13.4062 13.4062V12.5938C13.4062 11.6959 14.1334 10.9688 15.0312 10.9688H21.9375C23.0547 10.9687 23.9688 11.8706 23.9688 12.9878Z" fill="#B7B7B7"/>
</svg>
