<svg width="64" height="40" viewBox="0 0 64 40" fill="none" xmlns="http://www.w3.org/2000/svg">
<rect width="64" height="40" fill="white"/>
<g clip-path="url(#clip0_128_3531)">
<path d="M36.6651 11.0242H26.5796V28.7388H36.6651V11.0242Z" fill="#FF5A00"/>
<path d="M27.2509 19.8815C27.2509 16.2824 28.9816 13.0881 31.6372 11.0242C29.6828 9.52181 27.2174 8.61383 24.5281 8.61383C18.1576 8.61383 13.0029 13.6533 13.0029 19.8815C13.0029 26.1097 18.1576 31.1492 24.5281 31.1492C27.2174 31.1492 29.6828 30.2412 31.6372 28.7388C28.9778 26.7041 27.2509 23.4806 27.2509 19.8815Z" fill="#EB001B"/>
<path d="M50.271 19.8815C50.271 26.1097 45.1164 31.1492 38.7458 31.1492C36.0566 31.1492 33.5912 30.2412 31.6367 28.7388C34.3259 26.6713 36.023 23.4806 36.023 19.8815C36.023 16.2824 34.2924 13.0881 31.6367 11.0242C33.5874 9.52181 36.0528 8.61383 38.7421 8.61383C45.1164 8.61383 50.271 13.6861 50.271 19.8815Z" fill="#F79E1B"/>
</g>
<defs>
<clipPath id="clip0_128_3531">
<rect width="38" height="24" fill="white" transform="translate(13 8)"/>
</clipPath>
</defs>
</svg>
