<svg width="64" height="40" viewBox="0 0 64 40" fill="none" xmlns="http://www.w3.org/2000/svg">
<rect width="64" height="40" fill="white"/>
<g clip-path="url(#clip0_128_3546)">
<path d="M16.0688 29.5256V21.3819H24.6915L25.6166 22.5879L26.5724 21.3819H57.8705V28.9639C57.8705 28.9639 57.052 29.5174 56.1054 29.5256H38.7749L37.7319 28.2418V29.5256H34.314V27.3342C34.314 27.3342 33.8471 27.6401 32.8377 27.6401H31.6743V29.5256H26.4992L25.5754 28.2937L24.6374 29.5256H16.0688Z" fill="white"/>
<path d="M5.99805 15.2434L7.94249 10.7103H11.3052L12.4087 13.2496V10.7103H16.5889L17.2458 12.5456L17.8826 10.7103H36.6473V11.6329C36.6473 11.6329 37.6337 10.7103 39.2549 10.7103L45.3433 10.7315L46.4277 13.2376V10.7103H49.9259L50.8887 12.1498V10.7103H54.419V18.854H50.8887L49.966 17.4097V18.854H44.8264L44.3096 17.5702H42.9279L42.4194 18.854H38.9339C37.539 18.854 36.6473 17.9501 36.6473 17.9501V18.854H31.392L30.3489 17.5702V18.854H10.807L10.2905 17.5702H8.91325L8.40039 18.854H5.99805V15.2434Z" fill="white"/>
<path d="M8.63045 11.7144L6.00781 17.8121H7.71528L8.19919 16.5911H11.0124L11.4938 17.8121H13.2389L10.6187 11.7144H8.63045ZM9.60077 13.1335L10.4583 15.2672H8.74077L9.60077 13.1335V13.1335Z" fill="#016FD0"/>
<path d="M13.418 17.8109V11.7132L15.8444 11.7222L17.2557 15.6536L18.6331 11.7132H21.0402V17.8109H19.5157V13.3179L17.8998 17.8109H16.5628L14.9424 13.3179V17.8109H13.418Z" fill="#016FD0"/>
<path d="M22.0864 17.8109V11.7132H27.0609V13.0772H23.6269V14.1202H26.9807V15.4039H23.6269V16.4871H27.0609V17.8109H22.0864Z" fill="#016FD0"/>
<path d="M27.9419 11.7144V17.8121H29.4663V15.6458H30.1082L31.936 17.8121H33.7989L31.7931 15.5656C32.6163 15.4961 33.4655 14.7896 33.4655 13.6926C33.4655 12.4095 32.4583 11.7144 31.3343 11.7144H27.9419V11.7144ZM29.4663 13.0783H31.2089C31.6269 13.0783 31.931 13.4053 31.931 13.7202C31.931 14.1253 31.537 14.3621 31.2315 14.3621H29.4663V13.0783V13.0783Z" fill="#016FD0"/>
<path d="M35.643 17.8109H34.0864V11.7132H35.643V17.8109Z" fill="#016FD0"/>
<path d="M39.3363 17.8109H39.0003C37.3747 17.8109 36.3877 16.5302 36.3877 14.7871C36.3877 13.001 37.3636 11.7132 39.4165 11.7132H41.1014V13.1574H39.3549C38.5216 13.1574 37.9322 13.8077 37.9322 14.8022C37.9322 15.9831 38.6061 16.4791 39.577 16.4791H39.9781L39.3363 17.8109Z" fill="#016FD0"/>
<path d="M42.6539 11.7144L40.0312 17.8121H41.7387L42.2226 16.5911H45.0358L45.5172 17.8121H47.2623L44.6422 11.7144H42.6539ZM43.6242 13.1335L44.4817 15.2672H42.7642L43.6242 13.1335Z" fill="#016FD0"/>
<path d="M47.439 17.8109V11.7132H49.3771L51.8518 15.5443V11.7132H53.3762V17.8109H51.5008L48.9634 13.8795V17.8109H47.439Z" fill="#016FD0"/>
<path d="M17.1099 28.4825V22.3848H22.0843V23.7488H18.6503V24.7918H22.0041V26.0755H18.6503V27.1587H22.0843V28.4825H17.1099Z" fill="#016FD0"/>
<path d="M41.4844 28.4825V22.3848H46.4589V23.7488H43.0249V24.7918H46.3626V26.0755H43.0249V27.1587H46.4589V28.4825H41.4844Z" fill="#016FD0"/>
<path d="M22.2774 28.4825L24.6994 25.4713L22.2197 22.3848H24.1403L25.6171 24.2928L27.0989 22.3848H28.9443L26.4972 25.4337L28.9237 28.4825H27.0034L25.5695 26.6046L24.1704 28.4825H22.2774Z" fill="#016FD0"/>
<path d="M29.1069 22.3852V28.4829H30.6715V26.5573H32.2762C33.6339 26.5573 34.6631 25.837 34.6631 24.4361C34.6631 23.2757 33.8559 22.3852 32.4742 22.3852H29.1069V22.3852ZM30.6715 23.7642H32.3614C32.8001 23.7642 33.1136 24.033 33.1136 24.4662C33.1136 24.8732 32.8016 25.1683 32.3564 25.1683H30.6715V23.7642Z" fill="#016FD0"/>
<path d="M35.3237 22.3848V28.4825H36.8482V26.3162H37.49L39.3179 28.4825H41.1808L39.1749 26.236C39.9981 26.1665 40.8473 25.46 40.8473 24.363C40.8473 23.0799 39.8402 22.3848 38.7161 22.3848H35.3237V22.3848ZM36.8482 23.7488H38.5907C39.0088 23.7488 39.3128 24.0757 39.3128 24.3906C39.3128 24.7957 38.9189 25.0325 38.6133 25.0325H36.8482V23.7488V23.7488Z" fill="#016FD0"/>
<path d="M47.1657 28.4825V27.1587H50.2166C50.668 27.1587 50.8635 26.9147 50.8635 26.6472C50.8635 26.3909 50.6687 26.1317 50.2166 26.1317H48.838C47.6396 26.1317 46.9722 25.4016 46.9722 24.3054C46.9722 23.3277 47.5834 22.3848 49.3641 22.3848H52.3328L51.6909 23.7568H49.1234C48.6326 23.7568 48.4816 24.0143 48.4816 24.2602C48.4816 24.513 48.6683 24.7918 49.0432 24.7918H50.4874C51.8233 24.7918 52.403 25.5496 52.403 26.5419C52.403 27.6087 51.757 28.4825 50.4147 28.4825H47.1657Z" fill="#016FD0"/>
<path d="M52.7614 28.4825V27.1587H55.8123C56.2637 27.1587 56.4592 26.9147 56.4592 26.6472C56.4592 26.3909 56.2644 26.1317 55.8123 26.1317H54.4337C53.2353 26.1317 52.5679 25.4016 52.5679 24.3054C52.5679 23.3277 53.1791 22.3848 54.9598 22.3848H57.9285L57.2866 23.7568H54.7191C54.2283 23.7568 54.0773 24.0143 54.0773 24.2602C54.0773 24.513 54.264 24.7918 54.6389 24.7918H56.0831C57.419 24.7918 57.9987 25.5496 57.9987 26.5419C57.9987 27.6087 57.3527 28.4825 56.0104 28.4825H52.7614Z" fill="#016FD0"/>
</g>
<defs>
<clipPath id="clip0_128_3546">
<rect width="53" height="20" fill="white" transform="translate(5 10)"/>
</clipPath>
</defs>
</svg>
