<svg width="64" height="40" viewBox="0 0 64 40" fill="none" xmlns="http://www.w3.org/2000/svg">
<rect width="64" height="40" fill="white"/>
<g clip-path="url(#clip0_128_3567)">
<path d="M17.6419 13.6682C17.1133 14.3211 16.2676 14.836 15.4219 14.7625C15.3162 13.8797 15.7302 12.9418 16.2148 12.3625C16.7433 11.6913 17.6683 11.2131 18.4171 11.1763C18.5052 12.0959 18.1617 12.997 17.6419 13.6682ZM18.4083 14.9372C17.1838 14.8636 16.1355 15.6636 15.554 15.6636C14.9638 15.6636 14.074 14.974 13.105 14.9923C11.8452 15.0107 10.6736 15.7556 10.0305 16.9417C8.70906 19.3141 9.68691 22.8267 10.9643 24.7577C11.5898 25.714 12.3386 26.7622 13.3252 26.7255C14.259 26.6887 14.629 26.091 15.7567 26.091C16.8931 26.091 17.219 26.7255 18.2057 26.7071C19.2276 26.6887 19.8707 25.7508 20.4962 24.7945C21.2098 23.7094 21.5005 22.652 21.5181 22.5968C21.5005 22.5784 19.5448 21.7968 19.5271 19.4428C19.5095 17.4751 21.0688 16.5371 21.1393 16.482C20.2583 15.1211 18.884 14.974 18.4083 14.9372ZM25.4824 12.2706V26.6059H27.6143V21.7049H30.5655C33.2612 21.7049 35.1552 19.7739 35.1552 16.9785C35.1552 14.1832 33.2964 12.2706 30.6359 12.2706H25.4824V12.2706ZM27.6143 14.1464H30.0721C31.9221 14.1464 32.9793 15.1763 32.9793 16.9877C32.9793 18.7992 31.9221 19.8382 30.0633 19.8382H27.6143V14.1464V14.1464ZM39.049 26.7163C40.3881 26.7163 41.6302 26.0082 42.194 24.8864H42.238V26.6059H44.2114V19.4704C44.2114 17.4015 42.6257 16.0682 40.1854 16.0682C37.9214 16.0682 36.2476 17.4199 36.1859 19.2773H38.1064C38.265 18.3946 39.049 17.8153 40.1238 17.8153C41.4276 17.8153 42.1588 18.4498 42.1588 19.6175V20.4083L39.4983 20.5739C37.0228 20.7302 35.6838 21.7876 35.6838 23.6267C35.6838 25.4841 37.0669 26.7163 39.049 26.7163ZM39.6216 25.0151C38.4852 25.0151 37.7628 24.445 37.7628 23.5715C37.7628 22.6704 38.4588 22.1462 39.789 22.0635L42.1588 21.9072V22.7163C42.1588 24.0588 41.0664 25.0151 39.6216 25.0151ZM46.8454 30.5047C48.9245 30.5047 49.9023 29.6771 50.7568 27.1668L54.5009 16.2061H52.3337L49.823 24.6749H49.779L47.2683 16.2061H45.0395L48.6514 26.6427L48.4576 27.2772C48.1316 28.353 47.603 28.7668 46.6604 28.7668C46.493 28.7668 46.1671 28.7484 46.0349 28.73V30.4495C46.1583 30.4863 46.6869 30.5047 46.8454 30.5047Z" fill="black"/>
</g>
<defs>
<clipPath id="clip0_128_3567">
<rect width="46" height="19.5745" fill="white" transform="translate(9 11)"/>
</clipPath>
</defs>
</svg>
