<svg width="64" height="40" viewBox="0 0 64 40" fill="none" xmlns="http://www.w3.org/2000/svg">
<rect width="64" height="40" fill="white"/>
<g clip-path="url(#clip0_128_3571)">
<path d="M30.7348 21.3276V26.6751H29.0098V13.4501H33.4948C34.5873 13.4501 35.6223 13.8526 36.4273 14.6001C37.2323 15.2901 37.6348 16.3251 37.6348 17.4176C37.6348 18.5101 37.2323 19.4876 36.4273 20.2351C35.6223 20.9826 34.6448 21.3851 33.4948 21.3851L30.7348 21.3276ZM30.7348 15.0601V19.6601H33.6098C34.2423 19.6601 34.8748 19.4301 35.2773 18.9701C36.1973 18.1076 36.1973 16.6701 35.3348 15.8076L35.2773 15.7501C34.8173 15.2901 34.2423 15.0026 33.6098 15.0601H30.7348Z" fill="#5F6368"/>
<path d="M41.6023 17.3599C42.8673 17.3599 43.8448 17.7049 44.5923 18.3949C45.3398 19.0849 45.6848 20.0049 45.6848 21.1549V26.6749H44.0748V25.4099H44.0173C43.3273 26.4449 42.3498 26.9624 41.1998 26.9624C40.2223 26.9624 39.3598 26.6749 38.6698 26.0999C38.0373 25.5249 37.6348 24.7199 37.6348 23.8574C37.6348 22.9374 37.9798 22.1899 38.6698 21.6149C39.3598 21.0399 40.3373 20.8099 41.4873 20.8099C42.5223 20.8099 43.3273 20.9824 43.9598 21.3849V20.9824C43.9598 20.4074 43.7298 19.8324 43.2698 19.4874C42.8098 19.0849 42.2348 18.8549 41.6023 18.8549C40.6248 18.8549 39.8773 19.2574 39.3598 20.0624L37.8648 19.1424C38.7848 17.9349 39.9923 17.3599 41.6023 17.3599ZM39.4173 23.9149C39.4173 24.3749 39.6473 24.7774 39.9923 25.0074C40.3948 25.2949 40.8548 25.4674 41.3148 25.4674C42.0048 25.4674 42.6948 25.1799 43.2123 24.6624C43.7873 24.1449 44.0748 23.5124 44.0748 22.8224C43.5573 22.4199 42.8098 22.1899 41.8323 22.1899C41.1423 22.1899 40.5673 22.3624 40.1073 22.7074C39.6473 22.9949 39.4173 23.3974 39.4173 23.9149Z" fill="#5F6368"/>
<path d="M55.0002 17.6475L49.3077 30.7H47.5827L49.7102 26.1575L45.9727 17.705H47.8127L50.5152 24.2025H50.5727L53.2177 17.705H55.0002V17.6475Z" fill="#5F6368"/>
<path d="M23.8923 20.1775C23.8923 19.66 23.8348 19.1425 23.7773 18.625H16.5898V21.5575H20.6723C20.4998 22.4775 19.9823 23.34 19.1773 23.8575V25.755H21.6498C23.0873 24.4325 23.8923 22.4775 23.8923 20.1775Z" fill="#4285F4"/>
<path d="M16.5902 27.5951C18.6602 27.5951 20.3852 26.9051 21.6502 25.7551L19.1777 23.8576C18.4877 24.3176 17.6252 24.6051 16.5902 24.6051C14.6352 24.6051 12.9102 23.2826 12.3352 21.4426H9.80518V23.3976C11.1277 25.9851 13.7152 27.5951 16.5902 27.5951Z" fill="#34A853"/>
<path d="M12.3352 21.4424C11.9902 20.5224 11.9902 19.4874 12.3352 18.5099V16.5549H9.80521C8.71271 18.6824 8.71271 21.2124 9.80521 23.3974L12.3352 21.4424Z" fill="#FBBC04"/>
<path d="M16.5898 15.4048C17.6823 15.4048 18.7173 15.8073 19.5223 16.5548L21.7073 14.3698C20.3273 13.1048 18.4873 12.3573 16.6473 12.4148C13.7723 12.4148 11.1273 14.0248 9.8623 16.6123L12.3923 18.5673C12.9098 16.7273 14.6348 15.4048 16.5898 15.4048Z" fill="#EA4335"/>
</g>
<defs>
<clipPath id="clip0_128_3571">
<rect width="46" height="21.9075" fill="white" transform="translate(9 10)"/>
</clipPath>
</defs>
</svg>
