<svg width="64" height="40" viewBox="0 0 64 40" fill="none" xmlns="http://www.w3.org/2000/svg">
<rect width="64" height="40" fill="white"/>
<path d="M28.5401 28.1711H24.3291L26.963 11.8853H31.1737L28.5401 28.1711Z" fill="#00579F"/>
<path d="M43.8002 12.2833C42.9697 11.9538 41.6523 11.59 40.0233 11.59C35.8649 11.59 32.9365 13.8075 32.9185 16.9779C32.884 19.317 35.0151 20.6162 36.6091 21.3961C38.2383 22.1931 38.7921 22.7133 38.7921 23.4237C38.7755 24.5147 37.4756 25.0176 36.2632 25.0176C34.582 25.0176 33.6812 24.7583 32.3122 24.1513L31.7577 23.8911L31.1685 27.5469C32.1561 27.9969 33.9757 28.3962 35.8649 28.4137C40.2833 28.4137 43.1599 26.2305 43.1939 22.8519C43.2108 20.998 42.0854 19.5774 39.6593 18.4166C38.1865 17.6715 37.2845 17.169 37.2845 16.4066C37.3017 15.7135 38.0474 15.0035 39.7099 15.0035C41.0789 14.9688 42.0847 15.2978 42.8467 15.6271L43.2276 15.8001L43.8002 12.2833V12.2833Z" fill="#00579F"/>
<path d="M49.3935 22.4016C49.7403 21.466 51.0747 17.845 51.0747 17.845C51.0572 17.8797 51.4208 16.8921 51.6287 16.2858L51.923 17.6891C51.923 17.6891 52.7205 21.5873 52.8936 22.4016C52.2355 22.4016 50.2252 22.4016 49.3935 22.4016ZM54.5914 11.8853H51.3342C50.3298 11.8853 49.5667 12.1796 49.1333 13.2365L42.8784 28.1708H47.2969C47.2969 28.1708 48.0243 26.1608 48.1807 25.7279C48.6654 25.7279 52.9636 25.7279 53.5872 25.7279C53.7081 26.2996 54.0897 28.1708 54.0897 28.1708H57.9886L54.5914 11.8853V11.8853Z" fill="#00579F"/>
<path d="M20.8033 11.8853L16.6793 22.9906L16.2287 20.7383C15.4663 18.1395 13.0751 15.3159 10.4067 13.9119L14.1841 28.1538H18.6371L25.256 11.8853H20.8033V11.8853Z" fill="#00579F"/>
<path d="M12.8541 11.8853H6.07908L6.00977 12.2144C11.2947 13.5658 14.7949 16.8235 16.2329 20.739L14.7601 13.2543C14.5176 12.2141 13.7725 11.9196 12.8541 11.8853Z" fill="#FAA61A"/>
</svg>
